<svg width="170" height="183" viewBox="0 0 170 183" fill="none" xmlns="http://www.w3.org/2000/svg">
<g id="css">
<path id="Vector" d="M15.5763 163.956L0.13501 0.9375H169.865L154.403 163.931L84.8969 182.062L15.5763 163.956Z" fill="#1572B6"/>
<path id="Vector_2" d="M85 168.206L141.169 153.555L154.382 14.2696H85V168.206Z" fill="#33A9DC"/>
<path id="Vector_3" d="M85 73.3293H113.119L115.057 52.8557H85V32.8608H138.281L137.773 38.2234L132.554 93.3242H85V73.3293Z" fill="white"/>
<path id="Vector_4" d="M85.1305 125.254L85.0343 125.28L61.3705 119.264L59.858 103.318H38.5249L41.5018 134.711L85.0274 146.083L85.1305 146.057V125.254Z" fill="#EBEBEB"/>
<path id="Vector_5" d="M111.311 92.4768L108.753 119.251L85.0549 125.267V146.07L128.615 134.711L128.938 131.335L132.63 92.4768H111.311Z" fill="white"/>
<path id="Vector_6" d="M85.0757 32.8608V52.8557H33.7469L33.3207 48.3599L32.3513 38.2234L31.8425 32.8608H85.0757ZM85 73.3293V93.3242H61.6319L61.2057 88.8284L60.2432 78.6919L59.7344 73.3293H85Z" fill="#EBEBEB"/>
</g>
</svg>
