<svg width="105" height="150" viewBox="0 0 105 150" fill="none" xmlns="http://www.w3.org/2000/svg">
<g id="firebase">
<path id="Vector" d="M0 120.939L0.870762 119.669L42.0521 38.2531L42.139 37.3911L23.9859 1.86247C22.4643 -1.11359 18.1822 -0.361029 17.6835 2.97059L0 120.939Z" fill="#FFC24A"/>
<path id="Vector_2" d="M55.3732 64.265L68.8899 49.8419L55.3691 22.9487C54.0858 20.403 50.5022 20.3953 49.2324 22.9487L42.0083 37.3021V38.5244L55.3728 64.265H55.3732Z" fill="#F4BD62"/>
<path id="Vector_3" d="M0 120.939L0.39457 120.526L1.82848 119.919L54.5241 65.218L55.1919 63.3244L42.0463 37.2244L0 120.939Z" fill="#F6820C"/>
<path id="Vector_4" d="M57.0613 148.526L104.752 120.814L91.1334 33.4227C90.7073 30.6885 87.488 29.6077 85.6095 31.568L0 120.939L47.4173 148.524C48.8912 149.381 50.5511 149.832 52.2391 149.832C53.9271 149.832 55.5871 149.383 57.0613 148.526Z" fill="#FDE068"/>
<path id="Vector_5" d="M104.325 120.581L90.8094 33.8538C90.3869 31.1402 87.7094 30.0175 85.8452 31.9632L0.529053 120.769L47.4259 148.08C48.8885 148.931 50.5357 149.378 52.2109 149.379C53.886 149.379 55.5335 148.933 56.9965 148.083L104.325 120.581L104.325 120.581Z" fill="#FCCA3F"/>
<path id="Vector_6" d="M57.061 147.709C55.5868 148.566 53.9269 149.016 52.239 149.015C50.551 149.015 48.8912 148.565 47.4174 147.707L0.381934 120.519L0.000488281 120.939L47.4174 148.524C48.8913 149.381 50.5511 149.832 52.2392 149.832C53.9272 149.832 55.5872 149.383 57.0614 148.526L104.752 120.814L104.635 120.065L57.0614 147.71L57.061 147.709Z" fill="#EEAB37"/>
</g>
</svg>
