<svg width="230" height="253" viewBox="0 0 230 253" fill="none" xmlns="http://www.w3.org/2000/svg">
<g id="html">
<path id="Vector" d="M21.5936 227.659L0.808838 0.0625H229.191L208.379 227.623L114.861 252.938L21.5936 227.659Z" fill="#E44F26"/>
<path id="Vector_2" d="M115 233.593L190.573 213.137L208.351 18.6759H115V233.593Z" fill="#F1662A"/>
<path id="Vector_3" d="M115 103.082H77.1675L74.559 74.4981H115V46.5825H43.3125L43.997 54.0784L51.0178 130.998H115V103.082ZM115 175.576L114.87 175.612L83.032 167.222L80.997 144.96H52.2942L56.2995 188.78L114.87 204.656L115 204.62V175.576Z" fill="#EBEBEB"/>
<path id="Vector_4" d="M114.898 103.082V130.998H150.104L146.792 167.204L114.898 175.603V204.647L173.515 188.779L173.941 184.065L180.656 110.578L181.359 103.082H114.898ZM114.898 46.5825V74.4981H183.959L184.532 68.2304L185.836 54.0784L186.521 46.5825H114.898Z" fill="white"/>
</g>
</svg>
