<svg width="200" height="233" viewBox="0 0 200 233" fill="none" xmlns="http://www.w3.org/2000/svg">
<g id="java" filter="url(#filter0_dd_35_3)">
<path id="Vector" d="M64.4954 180.119C64.4954 180.119 54.1845 185.288 71.8337 187.036C93.2157 189.139 104.143 188.838 127.706 184.993C127.706 184.993 133.902 188.341 142.552 191.242C89.7314 210.755 23.0064 190.111 64.4954 180.119ZM58.0407 154.655C58.0407 154.655 46.4759 162.034 64.1384 163.608C86.979 165.639 105.017 165.806 136.229 160.625C136.229 160.625 140.546 164.398 147.334 166.461C83.4697 182.558 12.3361 167.73 58.0407 154.655Z" fill="#5382A1"/>
<path id="Vector_2" d="M112.455 111.46C125.47 124.376 109.035 135.999 109.035 135.999C109.035 135.999 142.083 121.293 126.906 102.878C112.731 85.7063 101.859 77.1728 160.709 47.7542C160.709 47.7542 68.3352 67.64 112.455 111.459" fill="#E76F00"/>
<path id="Vector_3" d="M182.316 198.954C182.316 198.954 189.946 204.373 173.912 208.565C143.423 216.527 47.0118 218.931 20.229 208.882C10.6016 205.273 28.6563 200.263 34.3352 199.211C40.2579 198.104 43.643 198.311 43.643 198.311C32.936 191.809 -25.5624 211.076 13.929 216.594C121.627 231.648 210.251 209.815 182.316 198.954ZM69.4532 128.271C69.4532 128.271 20.4133 138.312 52.0876 141.957C65.461 143.5 92.1211 143.152 116.955 141.358C137.25 139.883 157.629 136.745 157.629 136.745C157.629 136.745 150.473 139.387 145.295 142.434C95.4954 153.723 -0.709314 148.472 26.9868 136.923C50.4094 127.164 69.454 128.271 69.454 128.271M157.427 170.657C208.052 147.982 184.645 126.192 168.307 129.128C164.302 129.846 162.517 130.468 162.517 130.468C162.517 130.468 164.004 128.461 166.843 127.592C199.163 117.798 224.02 156.48 156.409 171.8C156.409 171.8 157.193 171.197 157.427 170.657Z" fill="#5382A1"/>
<path id="Vector_4" d="M126.905 0.249819C126.905 0.249819 154.942 24.4253 100.314 61.5982C56.5085 91.4181 90.3249 108.42 100.296 127.846C74.7257 107.96 55.96 90.4545 68.5499 74.162C87.0272 50.2445 138.217 38.649 126.905 0.249146" fill="#E76F00"/>
<path id="Vector_5" d="M74.4282 232.101C123.021 234.783 197.641 230.613 199.408 210.794C199.408 210.794 196.011 218.308 159.248 224.275C117.773 231.002 66.6204 230.217 36.2805 225.905C36.2813 225.905 42.4915 230.336 74.429 232.101" fill="#5382A1"/>
</g>
<defs>
<filter id="filter0_dd_35_3" x="-3.59619" y="0.249146" width="207.004" height="240.583" filterUnits="userSpaceOnUse" color-interpolation-filters="sRGB">
<feFlood flood-opacity="0" result="BackgroundImageFix"/>
<feColorMatrix in="SourceAlpha" type="matrix" values="0 0 0 0 0 0 0 0 0 0 0 0 0 0 0 0 0 0 127 0" result="hardAlpha"/>
<feOffset dy="4"/>
<feGaussianBlur stdDeviation="2"/>
<feComposite in2="hardAlpha" operator="out"/>
<feColorMatrix type="matrix" values="0 0 0 0 0 0 0 0 0 0 0 0 0 0 0 0 0 0 0.25 0"/>
<feBlend mode="normal" in2="BackgroundImageFix" result="effect1_dropShadow_35_3"/>
<feColorMatrix in="SourceAlpha" type="matrix" values="0 0 0 0 0 0 0 0 0 0 0 0 0 0 0 0 0 0 127 0" result="hardAlpha"/>
<feOffset dy="4"/>
<feGaussianBlur stdDeviation="2"/>
<feComposite in2="hardAlpha" operator="out"/>
<feColorMatrix type="matrix" values="0 0 0 0 0 0 0 0 0 0 0 0 0 0 0 0 0 0 0.25 0"/>
<feBlend mode="normal" in2="effect1_dropShadow_35_3" result="effect2_dropShadow_35_3"/>
<feBlend mode="normal" in="SourceGraphic" in2="effect2_dropShadow_35_3" result="shape"/>
</filter>
</defs>
</svg>
