<svg width="316" height="295" viewBox="0 0 316 295" fill="none" xmlns="http://www.w3.org/2000/svg">
<g id="js">
<path id="box" d="M0 0H316V295H0V0Z" fill="#F7DF1E"/>
<path id="letter" d="M83.0881 246.523L107.27 232.861C111.935 240.583 116.179 247.117 126.359 247.117C136.117 247.117 142.27 243.554 142.27 229.693V135.434H171.966V230.085C171.966 258.798 153.936 271.868 127.632 271.868C103.876 271.868 90.0871 260.382 83.0869 246.521M188.095 243.552L212.274 230.484C218.64 240.188 226.913 247.316 241.547 247.316C253.853 247.316 261.699 241.573 261.699 233.652C261.699 224.147 253.638 220.78 240.062 215.237L232.64 212.264C211.215 203.752 197.004 193.058 197.004 170.484C197.004 149.691 213.973 133.848 240.488 133.848C259.367 133.848 272.942 139.988 282.699 156.027L259.577 169.89C254.485 161.375 248.972 158.009 240.487 158.009C231.79 158.009 226.274 163.158 226.274 169.89C226.274 178.207 231.79 181.575 244.516 186.723L251.94 189.693C277.182 199.793 291.394 210.09 291.394 233.256C291.394 258.209 270.395 271.871 242.183 271.871C214.608 271.871 196.79 259.594 188.094 243.554" fill="black"/>
</g>
</svg>
