<svg width="59" height="125" viewBox="0 0 59 125" fill="none" xmlns="http://www.w3.org/2000/svg">
<path d="M40.3181 14.05C35.0906 7.90331 30.5837 1.65737 29.6639 0.359466C29.642 0.336783 29.6158 0.318768 29.5868 0.30651C29.5578 0.294251 29.5266 0.288003 29.4951 0.288144C29.4636 0.288285 29.4324 0.294811 29.4035 0.307328C29.3746 0.319846 29.3485 0.338094 29.3269 0.360971C28.4177 1.66704 23.9677 7.95298 18.7953 14.1461C-25.585 71.2709 26.251 109.456 26.251 109.456L26.6853 109.744C27.0968 115.67 28.0979 124.198 28.0979 124.198L31.9499 124.18C31.9499 124.18 32.875 115.692 33.2333 109.715L33.6658 109.375C33.714 109.422 85.2059 70.7761 40.3181 14.05ZM29.9541 108.572C29.9541 108.572 27.6343 106.606 27.0038 105.597L27.0034 105.5L29.5195 43.5015C29.5187 43.3085 29.8077 43.3073 29.8085 43.5003L32.8773 105.474L32.8778 105.571C32.2563 106.585 29.9541 108.572 29.9541 108.572Z" fill="#01EC64"/>
</svg>
