<svg width="463" height="452" viewBox="0 0 463 452" fill="none" xmlns="http://www.w3.org/2000/svg">
<!-- <g id="mongo"> -->
<path id="Vector" d="M38.1948 337.057C30.1707 336.208 22.6001 334.789 21.0391 334.483C21.0076 334.482 20.9762 334.487 20.9467 334.498C20.9173 334.509 20.8904 334.526 20.8676 334.548C20.8449 334.57 20.8269 334.596 20.8145 334.625C20.8022 334.654 20.7959 334.685 20.796 334.717C21.0376 336.289 22.1468 343.911 22.6686 351.963C29.8935 423.94 93.7682 415.872 93.7682 415.872L94.2814 415.781C98.6645 419.791 105.268 425.279 105.268 425.279L108.047 422.611C108.047 422.611 102.866 415.824 99.005 411.247L99.084 410.702C99.1518 410.704 109.816 347.212 38.1948 337.057ZM95.8419 412.679C95.8419 412.679 92.8056 412.854 91.6539 412.558L91.5867 412.488L50.673 365.838C50.5393 365.698 50.7478 365.498 50.8814 365.637L95.8241 408.42L95.8913 408.49C96.1399 409.653 95.8419 412.679 95.8419 412.679Z" fill="#01EC64"/>
<!-- <path id="Vector_2" d="M156.83 336.595L104.883 313.573L104.748 313.501L92.6653 325.101L95.1127 327.65L97.0619 325.779C97.6541 325.211 98.4465 324.921 99.2666 324.938C100.087 324.956 100.833 325.314 101.403 325.909L137.704 364.418C138.845 365.607 138.809 367.52 137.658 368.692L135.707 370.632L138.121 373.147L149.891 361.847L147.477 359.332L146.224 360.468C145.007 361.569 143.093 361.528 141.953 360.341L107.414 324.364L163.435 348.843C164.249 349.202 165.175 349.052 165.803 348.45C166.429 347.848 166.617 346.929 166.291 346.102L144.606 290.404L178.516 325.238C179.689 326.46 179.653 328.374 178.467 329.579L177.213 330.783L179.628 333.298L193.417 320.059L191.003 317.544L189.123 319.35C187.94 320.486 185.991 320.41 184.817 319.255L148.061 281.179C147.504 280.6 147.194 279.827 147.197 279.023C147.199 278.219 147.514 277.448 148.075 276.872L150.061 274.897L147.613 272.348L135.843 283.648L156.828 336.595L156.83 336.595ZM271.354 239.131C270.601 239.114 269.887 238.792 269.282 238.161L251.279 219.408C247.853 215.839 244.118 214.045 240.109 214.062C236.134 214.045 232.298 215.779 228.737 219.197C223.744 223.991 221.748 229.807 222.818 236.444C222.851 236.547 222.78 236.683 222.675 236.783C222.57 236.884 222.433 236.88 222.332 236.776L216.237 233.013L214.072 235.091L211.578 243.604L213.257 245.353L214.689 243.979C215.352 243.342 216.078 242.981 216.799 242.962C217.519 242.944 218.232 243.267 218.937 244.002L240.132 266.08C240.736 266.709 241.031 267.435 241.018 268.189C241.002 268.943 240.68 269.655 240.052 270.258L238.655 271.599L241.107 274.153L253.884 261.886L251.433 259.332L250.037 260.672C249.408 261.276 248.683 261.569 247.93 261.553C247.176 261.536 246.462 261.213 245.857 260.583L231.817 245.958C230.037 244.104 228.676 241.847 227.697 239.289C226.787 236.734 226.529 234.09 226.991 231.427C227.454 228.764 228.803 226.394 230.967 224.317C233.411 221.97 236 220.964 238.63 221.397C241.26 221.831 243.769 223.255 246.053 225.634L263.385 243.688C263.989 244.318 264.284 245.043 264.269 245.798C264.255 246.551 263.932 247.263 263.303 247.867L261.907 249.207L264.359 251.762L277.137 239.495L274.686 236.941L273.29 238.281C272.833 238.854 272.143 239.113 271.354 239.131ZM348.086 85.3783C342.749 86.8883 337.864 89.7019 333.605 93.7913L316.984 109.748L319.425 112.29L321.052 110.729C321.675 110.13 322.463 109.842 323.552 109.867C324.574 109.892 325.419 110.218 326.021 110.845L361.999 148.32C362.601 148.948 362.893 149.805 362.875 150.827C362.857 151.848 362.535 152.692 361.912 153.29L360.285 154.852L362.726 157.395L379.347 141.438C383.607 137.349 386.618 132.584 388.344 127.312C390.07 122.041 390.269 116.495 388.936 110.948C387.604 105.401 384.565 100.086 379.883 95.2097C375.202 90.3339 370.049 87.1148 364.528 85.5226C358.939 83.9284 353.457 83.9029 348.087 85.3776L348.086 85.3783ZM373.134 101.556C377.414 106.014 380.228 110.54 381.579 115.067C382.929 119.593 383.025 123.851 381.868 127.775C380.709 131.697 378.571 135.155 375.524 138.08L372.166 141.305C371.542 141.903 370.754 142.191 369.666 142.166C368.644 142.142 367.799 141.816 367.197 141.189L333.259 105.837C332.656 105.21 332.365 104.421 332.383 103.331C332.401 102.31 332.723 101.467 333.346 100.869L336.705 97.644C339.752 94.7187 343.293 92.7236 347.26 91.726C351.227 90.729 355.478 90.9982 359.945 92.5328C364.445 94.1014 368.887 97.1327 373.134 101.556ZM421.547 59.9647C418.304 59.6638 413.899 61.0146 409.641 63.5623C412.152 56.5346 411.384 50.7796 407.204 46.4254C404.931 44.0578 402.266 42.5331 399.269 41.9309C396.275 41.3252 393.088 41.5722 389.851 42.7389C386.611 43.9091 383.456 45.934 380.455 48.8156L361.64 66.8778L364.081 69.4199L365.581 67.9795C366.21 67.3763 367.003 67.0834 368.096 67.1042C369.122 67.1244 369.969 67.4487 370.571 68.0756L406.549 105.551C407.151 106.179 407.44 107.038 407.418 108.064C407.396 109.089 407.07 109.938 406.441 110.541L404.801 112.116L407.242 114.658L427.664 95.0526C430.77 92.0712 433.165 88.7684 434.781 85.2085C436.396 81.65 437.019 78.1066 436.582 74.6449C436.177 71.152 434.57 67.9408 431.829 65.0849C428.852 62.0537 425.436 60.3128 421.547 59.9647ZM414.341 99.3434C413.315 99.3239 412.468 98.9996 411.866 98.3728L395.715 81.5495L405.42 72.232C408.839 68.9501 412.294 67.3069 415.78 67.3044C419.268 67.3041 422.349 68.6959 425.025 71.4826C426.629 73.154 427.78 75.196 428.453 77.4276C429.12 79.7314 429.101 82.0925 428.401 84.572C427.731 87.0217 426.246 89.3861 423.979 91.5628L416.82 98.4349C416.193 99.0374 415.399 99.3296 414.339 99.3433L414.341 99.3434ZM392.307 77.9289L377.962 62.987C377.361 62.3601 377.07 61.5691 377.093 60.4755C377.115 59.4504 377.442 58.602 378.07 57.9988L382.678 53.5748C385.992 50.3933 389.24 48.8817 392.316 49.008C395.421 49.1725 398.195 50.5247 400.669 53.1015C403.211 55.749 404.516 58.5778 404.625 61.5526C404.696 64.4948 403.302 67.3731 400.441 70.1205L392.307 77.9289ZM194.443 256.388C190.376 257.492 186.663 259.587 183.441 262.68C180.305 265.691 178.029 269.205 176.804 273.1L176.706 273.415C175.438 277.434 175.358 281.58 176.365 285.749C177.373 289.918 179.575 293.807 182.907 297.278C186.239 300.749 190.035 303.109 194.16 304.285C198.285 305.461 202.43 305.55 206.497 304.446C210.564 303.343 214.277 301.247 217.498 298.154C220.635 295.143 222.911 291.629 224.136 287.736L224.234 287.419C225.501 283.401 225.582 279.255 224.575 275.085C223.568 270.917 221.365 267.027 218.033 263.556C214.701 260.085 210.905 257.726 206.781 256.549C202.656 255.373 198.51 255.285 194.444 256.388L194.443 256.388ZM211.901 269.442C216 273.712 218.293 278.18 218.614 282.676C218.969 287.136 217.397 291.114 213.932 294.44C210.53 297.706 206.574 299.124 202.224 298.665L201.987 298.638C197.508 298.134 193.137 295.662 189.038 291.392C185.014 287.201 182.731 282.816 182.345 278.404L182.326 278.159C181.97 273.699 183.544 269.719 187.007 266.394C190.472 263.068 194.51 261.659 198.953 262.196C203.432 262.7 207.803 265.173 211.901 269.442ZM317.21 138.528C313.143 139.632 309.431 141.727 306.209 144.82C303.072 147.831 300.796 151.345 299.572 155.239L299.473 155.556C298.206 159.574 298.126 163.72 299.133 167.889C300.14 172.058 302.342 175.948 305.674 179.418C309.006 182.89 312.803 185.249 316.928 186.425C321.052 187.602 325.198 187.69 329.264 186.586C333.331 185.483 337.044 183.387 340.265 180.294C343.402 177.283 345.679 173.769 346.904 169.876L347.002 169.559C348.269 165.541 348.349 161.395 347.342 157.226C346.335 153.056 344.132 149.168 340.8 145.696C337.468 142.226 333.672 139.866 329.547 138.69C325.423 137.513 321.243 137.458 317.211 138.529L317.21 138.528ZM334.669 151.582C338.768 155.852 341.06 160.321 341.382 164.815C341.736 169.277 340.164 173.254 336.7 176.58C333.297 179.847 329.34 181.265 324.992 180.805L324.754 180.778C320.276 180.274 315.905 177.802 311.805 173.532C307.749 169.306 305.497 164.955 305.112 160.544L305.093 160.299C304.738 155.838 306.311 151.86 309.775 148.534C313.239 145.208 317.277 143.799 321.721 144.336C326.164 144.874 330.57 147.313 334.669 151.582ZM265.568 183.838C262.776 186.518 260.798 189.555 259.634 192.951C258.469 196.347 258.195 199.693 258.88 202.989C259.513 206.218 261.067 209.195 263.354 211.56C265.43 213.722 267.826 215.24 270.546 216.048C273.162 216.819 275.86 216.976 278.673 216.553L280.179 228.108C280.354 229.547 281.356 230.73 282.679 231.202C284.072 231.674 285.514 231.361 286.561 230.356L287.992 228.983C287.521 231.169 287.459 233.27 287.898 235.255L287.959 235.514C288.491 237.884 289.544 239.889 291.084 241.493C293.912 244.438 297.534 245.651 301.821 245.065L302.056 245.031C306.413 244.4 310.945 241.858 315.515 237.471C318.689 234.423 321.223 230.986 323.008 227.328C324.777 223.744 325.608 220.172 325.471 216.707L325.456 216.403C325.29 212.808 323.887 209.599 321.276 206.879C318.531 204.02 315.542 203.002 311.226 203.394C307.559 203.765 303.443 206.042 299.361 209.961L285.407 223.358C285.385 223.375 285.357 223.386 285.329 223.388L285.303 223.389L285.282 223.381C285.254 223.366 285.201 223.334 285.202 223.285L284.144 214.92C285.388 214.495 286.581 213.934 287.701 213.247C288.705 212.618 289.714 211.783 290.761 210.779C293.691 207.965 295.774 204.827 296.939 201.431C298.103 198.034 298.412 194.656 297.762 191.325C297.146 188.031 295.633 185.128 293.324 182.722C290.846 180.141 285.072 176.639 279.343 177.516C279.322 177.494 279.326 177.474 279.333 177.461L279.343 177.447L287.648 171.083L284.334 167.631L272.332 179.153C269.879 180.368 267.591 181.896 265.568 183.838ZM290.71 201.648C290.054 203.617 288.992 205.374 287.562 206.747C285.224 208.991 282.362 210.131 279.045 210.166C275.727 210.202 272.545 208.633 269.599 205.565C266.653 202.496 265.215 199.252 265.386 195.939C265.557 192.626 266.812 189.813 269.15 187.569C270.554 186.221 272.201 185.254 274.122 184.7L274.373 184.63C276.369 184.055 278.488 184.098 280.733 184.691C282.943 185.317 285.104 186.659 287.113 188.751C289.155 190.878 290.443 193.059 290.909 195.291C291.445 197.524 291.366 199.676 290.71 201.647L290.71 201.648ZM293.575 223.556L303.029 214.479C305.646 211.968 307.823 210.883 310.01 210.927C312.198 210.971 314.195 211.935 315.869 213.678C318.313 216.224 319.311 219.288 318.793 222.799C318.276 226.311 316.325 229.725 312.975 232.94C310.044 235.754 306.967 237.436 303.982 237.889C300.998 238.342 298.249 237.293 295.906 234.853C294.433 233.319 293.479 231.487 293.112 229.428C292.743 227.369 292.885 225.491 293.574 223.557L293.575 223.556Z" fill="white"/> -->
<!-- </g> -->
</svg>
