<svg width="323" height="156" viewBox="0 0 323 156" fill="none" xmlns="http://www.w3.org/2000/svg">
<g id="mysql">
<path id="Vector" d="M96.0862 102.941L105.902 125.508C108.108 130.632 109.028 134.209 108.659 136.247C114.028 126.06 117.779 114.957 119.913 102.941H131.716C126.641 122.504 119.947 136.72 111.638 145.588C105.164 152.422 98.0721 155.839 90.3492 155.839C88.29 155.839 85.7514 155.398 82.7391 154.523V149.807C84.2109 149.96 85.9376 150.042 87.9235 150.042C91.5263 150.042 94.4302 149.334 96.6394 147.922C99.2846 146.202 100.609 144.268 100.609 142.125C100.609 140.661 99.5761 137.658 97.5201 133.115L83.8431 102.941H96.0856H96.0862ZM20.959 89.0702L38.9385 127.939H39.0496L57.1395 89.0702H71.9192C75.1555 108.346 77.067 125.983 77.6537 141.97H65.193C64.7546 127.026 63.5401 112.973 61.5542 99.8096H61.4457L42.4707 141.97H32.9813L14.1212 99.8096H14.0101C12.6109 112.451 11.7302 126.504 11.363 141.97H0C0.73432 123.16 2.57201 105.529 5.51308 89.0702H20.9597H20.959Z" fill="#00758F"/>
<path id="Vector_2" d="M222.377 88.2853C241.717 88.2853 251.387 97.04 251.387 114.541C251.387 124.051 248.479 131.235 242.668 136.088C241.621 136.975 240.463 137.741 239.245 138.451L252.931 143.246L252.918 143.245L248.058 149.191L230.235 141.822C227.28 142.442 224.029 142.752 220.487 142.752C210.991 142.752 203.897 140.791 199.208 136.874C194.06 132.541 191.487 125.719 191.487 116.421C191.487 106.965 194.39 99.8083 200.203 94.949C205.497 90.5041 212.89 88.2848 222.377 88.2848V88.2853ZM163.152 88.3622C170.064 88.3622 176.349 89.6727 182.01 92.2845L179.135 96.8246C174.291 95.3656 169.514 94.633 164.804 94.633C160.983 94.633 158.038 95.2847 155.985 96.5962C153.921 97.896 152.644 99.5687 152.644 101.608C152.644 104.741 155.794 107.459 161.612 109.754C163.517 110.492 165.416 111.239 167.309 111.994L167.743 112.167L167.961 112.254L168.395 112.427L168.612 112.514L169.046 112.687C173.45 114.446 177.593 116.125 177.593 116.125C183.41 119.05 186.309 122.169 186.309 127.307C186.309 131.793 183.989 135.476 179.363 138.358C174.735 141.226 168.516 142.665 160.729 142.665C153.446 142.665 146.387 141.009 139.55 137.726L142.748 133.182C148.632 135.271 153.957 136.315 158.738 136.315C163.222 136.315 166.732 135.606 169.271 134.205C171.806 132.794 173.324 130.825 173.324 128.33C173.324 125.189 170.24 122.504 164.584 120.251C162.813 119.558 161.048 118.858 159.288 118.152L158.854 117.978C158.058 117.659 157.256 117.337 156.471 117.021L156.045 116.849C152.225 115.309 148.922 113.964 148.922 113.964C143.267 111.034 140.432 107.889 140.432 102.707C140.432 98.4221 142.546 94.9584 146.769 92.3234C151.002 89.6826 156.464 88.3622 163.152 88.3622ZM274.117 89.0702V135.463H297.608V141.97H262.202V89.0702H274.117ZM310.662 135.483V136.582H308.079V141.964H306.105V136.582H303.422V135.483H310.663H310.662ZM315.432 135.483L317.911 139.901L320.189 135.483H322.989V141.964H321.128V137.031L318.535 141.964H317.193L314.596 137.031H314.496V141.964H312.735V135.483H315.432H315.432ZM221.16 94.7908C209.763 94.7908 204.061 101.455 204.061 114.776C204.061 122.406 205.572 127.939 208.589 131.387C211.382 134.579 215.757 136.171 221.714 136.171C233.111 136.171 238.812 129.455 238.812 116.028C238.812 108.505 237.301 103.019 234.289 99.5691C231.493 96.3847 227.119 94.7908 221.161 94.7908H221.16Z" fill="#F29111"/>
<path id="Vector_3" d="M191.288 3.27776C195.069 -3.30464 208.288 1.68021 213.418 3.97953C214.676 4.55481 216.118 5.77018 217.559 6.21941C219.808 6.28199 222.055 6.4067 224.308 6.4733C228.534 7.17686 232.492 7.75169 235.821 9.09535C251.295 15.5521 261.368 22.1319 270.639 33C272.62 35.302 273.609 37.7931 275.227 40.2842C277.473 43.9973 279.997 47.8951 282.603 51.4062C283.771 53.0708 284.673 54.9218 286.294 56.3276C286.927 56.9704 288.724 57.1599 289.798 57.5439C292.769 58.6332 296.367 59.4601 299.16 60.7385C304.377 63.0432 309.421 65.7895 314.006 68.6011C315.715 69.6864 316.879 71.2227 318.508 72.3706V72.9499C317.062 73.2641 315.622 73.5859 314.181 73.8438C311.032 74.4169 308.243 74.2873 305.188 74.8608C303.301 75.2487 300.957 75.7606 298.977 75.8906L299.16 76.0211C300.325 78.379 306.626 80.2966 309.508 81.7069C313.008 83.4966 316.251 85.6672 318.861 88.1601C319.763 88.7962 320.664 89.375 321.562 90.0093C322.189 90.6521 322.365 91.4835 323 92.0565V92.2505C322.297 92.0748 321.792 91.7396 321.313 91.3892L321.027 91.1777C320.741 90.9676 320.453 90.7611 320.124 90.5908C318.139 89.6298 316.166 88.4801 314.181 87.5866C310.766 86.0516 306.806 85.1608 303.301 83.62C301.319 82.7256 299.429 81.7069 297.54 80.6833C295.827 79.7862 293.941 78.0634 292.864 76.785C292.23 76.0788 292.143 75.2487 291.419 74.7378C291.548 73.8845 292.652 73.6311 293.765 73.4228L294.021 73.375C294.406 73.3043 294.782 73.2337 295.11 73.1403C299.787 71.7332 305.363 71.2227 312.564 71.3505C312.292 70.0695 307.793 68.4732 306.357 67.7062C303.474 66.2338 300.421 64.6975 297.362 63.3574C295.742 62.6557 292.949 62.1434 291.154 61.5699C288.724 60.8663 283.325 60.1632 281.978 58.8232C279.691 56.7107 278.049 54.191 276.454 51.6458L276.02 50.9512C275.875 50.7197 275.73 50.4883 275.585 50.257C273.7 47.192 271.358 43.9964 269.468 40.8581C268.48 39.3272 268.027 37.9835 266.945 36.5151C260.38 27.5047 250.662 19.9608 238.881 14.6555C235.01 12.9292 230.693 11.3316 225.927 10.2459C223.226 9.66795 219.985 9.98755 217.108 9.54413H215.214C213.598 9.2214 212.248 8.00737 210.987 7.36728C208.202 6.0272 205.412 5.12741 202.081 4.17129C200.914 3.78777 197.581 2.89469 196.418 3.5978C195.698 3.72609 195.332 3.91874 195.155 4.431C194.438 5.19535 195.069 6.3468 195.515 7.05171C196.866 9.09446 198.753 10.3085 200.467 12.0348C201.991 13.5657 203.884 15.292 204.965 16.9566C207.297 20.5348 208.382 24.4991 210.543 28.0768C211.344 29.4223 212.612 30.9532 213.778 32.1668C214.767 33.1301 216.564 33.8265 217.108 35.0459C218.191 36.3243 215.485 40.5425 214.859 41.8822C212.515 47.124 212.969 54.4105 215.668 58.9541L215.812 59.1937L215.956 59.4364C216.941 61.1006 217.996 62.8926 220.616 63.3579C220.796 63.2309 220.616 63.2975 220.974 63.2309C221.608 59.714 221.786 56.3271 223.497 53.5755C224.486 51.855 226.46 50.6387 227.813 49.2343C228.715 49.6169 228.715 50.7706 229.252 51.5341C230.423 53.5142 231.681 55.6853 233.124 57.6712C236.086 61.7612 239.42 65.7265 243.197 69.3042C244.462 70.5822 246.257 71.9888 247.875 73.1398C248.596 73.5855 249.404 73.843 249.946 74.4164H250.122V74.6095C247.424 73.9046 245.713 71.9263 243.56 70.7712C239.508 68.6002 234.654 65.3398 231.861 62.2113C230.693 60.4153 229.43 58.694 228.17 56.9069V56.7777C227.632 57.2882 227.813 57.7951 227.543 58.5675C226.375 61.7612 227.275 65.4046 223.226 66.5534C218.637 67.8989 215.214 64.3824 213.778 62.7844C209.188 57.4804 207.931 48.5325 211.167 41.3096C211.887 39.7107 211.984 37.7931 213.24 36.5165C212.969 35.3624 211.713 35.0468 210.987 34.3396C209.728 33.131 208.65 31.723 207.664 30.3806C205.77 27.7586 204.422 24.6256 202.985 21.8136C202.352 20.6653 202.171 19.5125 201.541 18.4254C200.466 16.7662 198.485 15.1016 196.956 13.6337C194.886 11.5239 188.858 7.43478 191.288 3.27776ZM220.794 15.8002C221.035 15.971 221.325 16.1203 221.625 16.2673L221.987 16.4434C222.47 16.6803 222.937 16.9298 223.224 17.2695C223.678 17.7192 223.763 18.163 224.306 18.6136C224.306 20.1499 223.678 21.1713 222.409 21.8078C222.409 21.8078 222.323 21.8748 222.234 21.9374C221.515 20.9134 220.885 19.8947 220.16 18.8715C219.268 17.9784 218.007 17.2699 217.281 16.2494H217.106V16.1212C218.191 15.9312 219.268 15.8002 220.794 15.8002Z" fill="#00758F"/>
</g>
</svg>
