<svg width="325" height="178" viewBox="0 0 325 178" fill="none" xmlns="http://www.w3.org/2000/svg">
<g id="node">
<path id="js-logo" d="M160.666 177.486C159.566 177.486 158.538 177.225 157.584 176.766L147.827 171.59C146.36 170.869 147.094 170.607 147.534 170.476C149.515 169.887 149.882 169.755 151.936 168.708C152.156 168.576 152.45 168.642 152.669 168.773L160.153 172.769C160.446 172.9 160.813 172.9 161.032 172.769L190.305 157.635C190.598 157.504 190.745 157.241 190.745 156.914V126.711C190.745 126.383 190.598 126.122 190.305 125.99L161.032 110.921C160.739 110.79 160.372 110.79 160.153 110.921L130.88 125.99C130.587 126.121 130.44 126.449 130.44 126.71V156.914C130.44 157.176 130.587 157.503 130.88 157.635L138.877 161.762C143.206 163.728 145.92 161.435 145.92 159.142V129.331C145.92 128.938 146.287 128.545 146.8 128.545H150.542C150.982 128.545 151.422 128.873 151.422 129.331V159.142C151.422 164.317 148.267 167.331 142.765 167.331C141.078 167.331 139.758 167.331 136.016 165.693L128.313 161.762C126.405 160.78 125.232 158.945 125.232 156.98V126.776C125.232 124.811 126.405 122.976 128.313 121.993L157.584 106.859C159.419 105.942 161.914 105.942 163.747 106.859L193.019 121.993C194.926 122.976 196.101 124.811 196.101 126.776V156.98C196.101 158.945 194.926 160.78 193.019 161.762L163.747 176.897C162.793 177.29 161.693 177.486 160.666 177.486H160.666ZM169.689 156.718C156.851 156.718 154.21 151.476 154.21 147.021C154.21 146.628 154.577 146.235 155.09 146.235H158.905C159.345 146.235 159.712 146.497 159.712 146.89C160.299 150.362 161.987 152.066 169.763 152.066C175.925 152.066 178.567 150.821 178.567 147.873C178.567 146.169 177.833 144.925 168.222 144.073C160.226 143.352 155.237 141.78 155.237 136.08C155.237 130.773 160.226 127.628 168.589 127.628C177.979 127.628 182.602 130.511 183.189 136.8C183.189 136.997 183.115 137.193 182.969 137.39C182.821 137.521 182.602 137.652 182.382 137.652H178.567C178.2 137.652 177.833 137.39 177.76 137.062C176.879 133.459 174.605 132.28 168.589 132.28C161.84 132.28 161.032 134.376 161.032 135.948C161.032 137.849 161.987 138.438 171.083 139.486C180.107 140.535 184.363 142.042 184.363 147.676C184.289 153.442 179.007 156.718 169.689 156.718Z" fill="#539E43"/>
<path id="letter-out" d="M69.8421 59.359C69.8421 58.1799 69.1083 57.0654 67.9346 56.4759L36.8286 40.4899C36.3144 40.2274 35.7279 40.0965 35.1414 40.0307H34.8475C34.2609 40.0307 33.6738 40.2274 33.1603 40.4899L2.0542 56.4759C0.879883 57.0654 0.146729 58.1793 0.146729 59.359L0.220361 102.338C0.220361 102.928 0.587256 103.517 1.17378 103.78C1.76094 104.107 2.49409 104.107 3.00825 103.78L21.4958 94.3451C22.6695 93.7555 23.4033 92.6416 23.4033 91.4625V71.3485C23.4033 70.1694 24.1364 69.0555 25.3107 68.4659L33.1603 64.4037C33.7474 64.076 34.4076 63.9445 35.0677 63.9445C35.7279 63.9445 36.388 64.076 36.9022 64.4037L44.7517 68.4659C45.926 69.0555 46.6592 70.1688 46.6592 71.3485V91.4625C46.6592 92.6416 47.393 93.7555 48.5667 94.3451L67.0542 103.78C67.3398 103.94 67.6704 104.025 68.0079 104.025C68.3454 104.025 68.6761 103.94 68.9617 103.78C69.5488 103.517 69.9157 102.928 69.9157 102.338L69.8421 59.359ZM219.357 0.196696C218.77 -0.0657688 218.036 -0.0657688 217.522 0.196696C216.936 0.524352 216.569 1.04815 216.569 1.6377V44.2245C216.569 44.6173 216.349 45.0102 215.909 45.2726C215.469 45.4688 215.028 45.4688 214.588 45.2726L206.812 41.2761C206.242 40.9862 205.597 40.8338 204.941 40.8338C204.285 40.8338 203.64 40.9862 203.07 41.2761L171.964 57.3279C170.79 57.9174 170.056 59.0314 170.056 60.2105V92.2482C170.056 93.4273 170.79 94.5418 171.964 95.1313L203.07 111.183C203.64 111.473 204.285 111.625 204.941 111.625C205.597 111.625 206.242 111.473 206.812 111.183L237.918 95.1313C239.092 94.5418 239.825 93.4279 239.825 92.2482V12.3829C239.825 11.138 239.092 10.0247 237.918 9.43456L219.357 0.196696H219.357ZM216.496 81.7003C216.496 82.0279 216.349 82.2898 216.055 82.4208L205.418 87.924C205.269 87.9888 205.106 88.0224 204.941 88.0224C204.776 88.0224 204.612 87.9888 204.464 87.924L193.826 82.4208C193.533 82.2898 193.386 81.9622 193.386 81.7003V70.6932C193.386 70.3655 193.533 70.1036 193.826 69.9727L204.464 64.4689C204.612 64.4041 204.776 64.3705 204.941 64.3705C205.106 64.3705 205.269 64.4041 205.418 64.4689L216.055 69.9727C216.349 70.1031 216.496 70.4313 216.496 70.6932V81.7003ZM322.872 70.4313C324.047 69.8418 324.707 68.7278 324.707 67.5482V59.7519C324.707 58.5728 323.973 57.4588 322.872 56.8693L291.987 40.8833C291.416 40.5934 290.772 40.441 290.116 40.441C289.46 40.441 288.815 40.5934 288.245 40.8833L257.139 56.9345C255.964 57.524 255.231 58.638 255.231 59.8171V91.8554C255.231 93.0345 255.965 94.1484 257.139 94.7379L288.024 110.462C289.199 111.052 290.593 111.052 291.693 110.462L310.4 101.16C310.988 100.897 311.355 100.308 311.355 99.718C311.355 99.1284 310.988 98.5389 310.4 98.2764L279.148 82.2246C278.561 81.897 278.194 81.3732 278.194 80.7836V70.7595C278.194 70.17 278.561 69.5804 279.148 69.3179L288.905 64.3385C289.19 64.178 289.521 64.0928 289.859 64.0928C290.196 64.0928 290.527 64.178 290.812 64.3385L300.57 69.3179C301.157 69.6456 301.523 70.1694 301.523 70.7595V78.6216C301.523 79.2111 301.89 79.8007 302.477 80.0626C302.763 80.2232 303.094 80.3084 303.431 80.3084C303.769 80.3084 304.099 80.2232 304.385 80.0626L322.872 70.4313Z" fill="#333333"/>
<path id="e-dot" d="M289.639 68.924C289.747 68.8599 289.875 68.8257 290.005 68.8257C290.136 68.8257 290.263 68.8599 290.372 68.924L296.315 72.0033C296.535 72.1348 296.681 72.3309 296.681 72.5928V78.752C296.681 79.0139 296.535 79.2106 296.315 79.3415L290.372 82.4208C290.263 82.4849 290.136 82.5191 290.005 82.5191C289.875 82.5191 289.747 82.4849 289.639 82.4208L283.696 79.3415C283.476 79.2106 283.33 79.0139 283.33 78.752V72.5934C283.33 72.3309 283.476 72.1342 283.696 72.0038L289.639 68.924Z" fill="#539E43"/>
<g id="Group">
<g id="Group_2">
<path id="Vector" d="M152.816 56.9345L121.784 41.0143C121.479 40.8768 121.159 40.767 120.83 40.6866L86.0552 93.8871C86.3432 94.2012 86.6911 94.4674 87.0829 94.6734L118.115 110.594C118.996 111.053 120.023 111.184 120.976 110.921L153.623 57.5904C153.403 57.3285 153.109 57.1312 152.816 56.9351V56.9345Z" fill="url(#paint0_linear_11_372)"/>
</g>
<g id="Group_3">
<path id="Vector_2" fill-rule="evenodd" clip-rule="evenodd" d="M117.088 35.1828L116.648 35.3795H117.235L117.088 35.1828Z" fill="url(#paint1_linear_11_372)"/>
<path id="Vector_3" fill-rule="evenodd" clip-rule="evenodd" d="M152.89 94.607C153.77 94.1484 154.43 93.3622 154.724 92.5107L120.682 40.6209C119.802 40.4899 118.848 40.5551 118.042 41.0137L87.229 56.8693L120.462 110.986C120.945 110.916 121.415 110.783 121.856 110.594L152.889 94.6076L152.89 94.607Z" fill="url(#paint2_linear_11_372)"/>
<path id="Vector_4" fill-rule="evenodd" clip-rule="evenodd" d="M155.751 94.0832L155.531 93.7556V94.2142L155.751 94.0832H155.751Z" fill="url(#paint3_linear_11_372)"/>
<path id="Vector_5" fill-rule="evenodd" clip-rule="evenodd" d="M152.89 94.607L121.93 110.528C121.493 110.727 121.022 110.86 120.536 110.921L121.124 111.904L155.457 94.149V93.7556L154.577 92.4449C154.43 93.3622 153.77 94.1484 152.89 94.607Z" fill="url(#paint4_linear_11_372)"/>
<path id="Vector_6" fill-rule="evenodd" clip-rule="evenodd" d="M152.89 94.607L121.93 110.528C121.493 110.727 121.022 110.86 120.536 110.921L121.124 111.904L155.457 94.149V93.7556L154.577 92.4449C154.43 93.3622 153.77 94.1484 152.89 94.607Z" fill="url(#paint5_linear_11_372)"/>
</g>
</g>
</g>
<defs>
<linearGradient id="paint0_linear_11_372" x1="115.297" y1="79.5082" x2="195.445" y2="30.7486" gradientUnits="userSpaceOnUse">
<stop offset="0.1376" stop-color="#41873F"/>
<stop offset="0.4032" stop-color="#54A044"/>
<stop offset="0.7136" stop-color="#66B848"/>
<stop offset="0.9081" stop-color="#6CC04A"/>
</linearGradient>
<linearGradient id="paint1_linear_11_372" x1="90.7606" y1="35.2092" x2="147.898" y2="35.2092" gradientUnits="userSpaceOnUse">
<stop offset="0.09192" stop-color="#6CC04A"/>
<stop offset="0.2864" stop-color="#66B848"/>
<stop offset="0.5968" stop-color="#54A044"/>
<stop offset="0.8624" stop-color="#41873F"/>
</linearGradient>
<linearGradient id="paint2_linear_11_372" x1="84.2666" y1="75.7717" x2="155.736" y2="75.7717" gradientUnits="userSpaceOnUse">
<stop offset="0.09192" stop-color="#6CC04A"/>
<stop offset="0.2864" stop-color="#66B848"/>
<stop offset="0.5968" stop-color="#54A044"/>
<stop offset="0.8624" stop-color="#41873F"/>
</linearGradient>
<linearGradient id="paint3_linear_11_372" x1="134.135" y1="93.9216" x2="155.593" y2="93.9216" gradientUnits="userSpaceOnUse">
<stop offset="0.09192" stop-color="#6CC04A"/>
<stop offset="0.2864" stop-color="#66B848"/>
<stop offset="0.5968" stop-color="#54A044"/>
<stop offset="0.8624" stop-color="#41873F"/>
</linearGradient>
<linearGradient id="paint4_linear_11_372" x1="84.2671" y1="102.228" x2="155.736" y2="102.228" gradientUnits="userSpaceOnUse">
<stop offset="0.09192" stop-color="#6CC04A"/>
<stop offset="0.2864" stop-color="#66B848"/>
<stop offset="0.5968" stop-color="#54A044"/>
<stop offset="0.8624" stop-color="#41873F"/>
</linearGradient>
<linearGradient id="paint5_linear_11_372" x1="166.148" y1="51.3737" x2="151.604" y2="136.708" gradientUnits="userSpaceOnUse">
<stop stop-color="#41873F"/>
<stop offset="0.3288" stop-color="#418B3D"/>
<stop offset="0.6352" stop-color="#419637"/>
<stop offset="0.9319" stop-color="#3FA92D"/>
<stop offset="1" stop-color="#3FAE2A"/>
</linearGradient>
</defs>
</svg>
