<?xml version="1.0" encoding="utf-8"?><!-- Uploaded to: SVG Repo, www.svgrepo.com, Generator: SVG Repo Mixer Tools -->
<svg fill="#000000" width="800px" height="800px" viewBox="0 0 24 24" id="note-edit" data-name="Flat Color" xmlns="http://www.w3.org/2000/svg" class="icon flat-color"><rect id="primary" x="4" y="3" width="16" height="19" rx="2" style="fill: rgb(0, 0, 0);"></rect><path id="secondary" d="M16,3V5a1,1,0,0,1-1,1H9A1,1,0,0,1,8,5V3A1,1,0,0,1,9,2h6A1,1,0,0,1,16,3ZM15,9.46a2.57,2.57,0,0,0-3.54,0L8.32,12.65a1,1,0,0,0-.28.56l-.36,2.48a1,1,0,0,0,.28.85,1.05,1.05,0,0,0,.71.29h.14l2.48-.36a1,1,0,0,0,.56-.28L15,13a2.51,2.51,0,0,0,0-3.54Z" style="fill: rgb(44, 169, 188);"></path></svg>