<svg width="278" height="226" viewBox="0 0 278 226" fill="none" xmlns="http://www.w3.org/2000/svg">
<g id="react">
<path id="Vector" d="M139 135.843C152.635 135.843 163.688 125.735 163.688 113.265C163.688 100.796 152.635 90.6871 139 90.6871C125.365 90.6871 114.312 100.796 114.312 113.265C114.312 125.735 125.365 135.843 139 135.843Z" fill="#00D8FF"/>
<path id="Vector_2" d="M139 165.032C109.327 165.689 79.7282 162.031 51.31 154.195C38.1824 150.389 25.9385 144.394 15.1971 136.512C11.0983 133.819 7.68493 130.347 5.1912 126.335C2.69747 122.322 1.18242 117.864 0.75 113.265C0.75 98.3365 18.683 83.7059 48.7227 74.1328C77.9007 65.6502 108.387 61.5391 139 61.9587C169.205 61.5727 199.282 65.6095 228.092 73.916C240.735 77.6022 252.564 83.3078 263.03 90.7683C267.059 93.3354 270.421 96.6813 272.878 100.569C275.336 104.457 276.828 108.791 277.25 113.265C277.25 128.781 257.204 144.504 224.913 154.276C197.045 161.857 168.07 165.484 139 165.032V165.032ZM139 72.76C109.712 72.402 80.5482 76.3102 52.6036 84.3381C24.9536 93.1616 12.5605 105.227 12.5605 113.238C12.5605 121.619 25.8819 134.796 55.1316 143.944C82.3182 151.403 110.625 154.875 139 154.231C166.812 154.686 194.536 151.244 221.209 144.026C251.575 134.823 265.4 121.628 265.4 113.265C264.902 110.395 263.758 107.651 262.041 105.206C260.325 102.761 258.072 100.668 255.426 99.059C246.062 92.4404 235.496 87.3838 224.211 84.1213C196.651 76.2078 167.884 72.3723 139 72.76V72.76Z" fill="#00D8FF"/>
<path id="Vector_3" d="M82.9101 225.876C78.3034 225.973 73.751 224.95 69.7171 222.914C55.5761 215.454 50.6781 193.941 56.6129 165.357C63.1566 138.003 74.4946 111.796 90.1879 87.7519C104.909 63.6304 123.755 41.8182 146.011 23.1423C155.819 14.9664 167.133 8.44437 179.428 3.87869C183.876 1.97255 188.727 0.984451 193.638 0.984451C198.55 0.984451 203.401 1.97255 207.849 3.87869C222.552 11.6275 227.421 35.3616 220.558 65.824C213.812 91.6946 202.768 116.466 187.812 139.275C173.609 163.112 155.357 184.734 133.737 203.334C123.573 211.83 111.778 218.533 98.9471 223.103C93.8103 224.847 88.3883 225.784 82.9101 225.876V225.876ZM100.418 93.1165C85.4489 116.14 74.5821 141.196 68.2259 167.344C62.7651 193.67 68.0087 209.502 75.6322 213.53C83.5322 217.712 102.709 213.747 125.995 195.143C146.634 177.323 164.055 156.626 177.611 133.82C191.939 112.015 202.533 88.3312 209.024 63.5933C215.482 34.9191 209.903 17.3623 201.983 13.1899C199.015 12.1497 195.843 11.6841 192.667 11.8225C189.492 11.9608 186.383 12.7001 183.536 13.9937C172.592 18.1241 162.53 23.9879 153.813 31.3156C132.548 49.2046 114.546 70.0862 100.488 93.1707L100.418 93.1165Z" fill="#00D8FF"/>
<path id="Vector_4" d="M195.06 225.993C181.68 225.993 164.685 218.588 146.989 204.67C124.343 185.825 105.178 163.753 90.2373 139.311C74.7408 115.598 63.4926 89.7708 56.9191 62.8076C54.0683 50.9449 53.54 38.7139 55.3588 26.6826C55.7793 22.2194 57.2653 17.8949 59.7121 14.0141C62.1588 10.1333 65.5066 6.79065 69.5196 4.22187C84.2037 -3.55403 109.118 4.43862 134.546 25.0841C155.685 43.3469 173.636 64.4667 187.773 87.7068C203.26 110.866 214.626 136.128 221.446 162.549C224.42 174.847 224.879 187.542 222.799 199.992C222.305 204.584 220.73 209.023 218.184 213.006C215.637 216.989 212.179 220.421 208.046 223.067C204.078 225.079 199.596 226.088 195.06 225.993V225.993ZM100.458 133.875C114.791 157.233 133.098 178.357 154.691 196.452C176.9 213.927 194.517 217.684 202.091 213.611C209.991 209.412 215.818 192.271 209.814 164.536C203.236 139.311 192.334 115.197 177.513 93.0894C164.022 70.8465 146.888 50.6232 126.706 33.1219C102.769 13.6866 83.3545 9.3426 75.4446 13.5331C72.9792 15.3654 70.9561 17.6452 69.5028 20.2287C68.0496 22.8122 67.1979 25.6433 67.0014 28.543C65.4314 39.2729 65.9428 50.172 68.5123 60.7394C74.8353 86.5249 85.6232 111.221 100.468 133.893L100.458 133.875Z" fill="#00D8FF"/>
</g>
</svg>
